<svg xmlns="http://www.w3.org/2000/svg" width="151" height="41" fill="none" viewBox="0 0 151 41"><path fill="#FC6733" fill-opacity=".4" d="M19.398 0v9.67l10.446 9.67 10.445-9.67V0L29.844 9.67 19.398 0Z" opacity=".4"/><path fill="#FC6733" fill-opacity=".6" d="M0 19.34h9.7l9.699-9.67L9.699 0H0l9.7 9.67L0 19.34Z" opacity=".6"/><path fill="#FC6733" d="M40.29 19.34H29.843L19.398 29.753l10.446 10.414h10.445L29.844 29.753 40.289 19.34Z"/><path fill="#FC6733" fill-opacity=".8" d="M19.399 40.167V29.753l-9.7-10.413L0 29.753v10.414l9.7-10.414 9.699 10.414Z" opacity=".8"/><path fill="#000" d="M57.003 8.35H53.72V5.773h6.884V3.074h-9.729V16.96h5.989c2.984 0 4.775-1.547 4.775-4.344 0-2.816-1.592-4.264-4.636-4.264Zm-.239 5.912H53.72v-3.313h3.184c1.333 0 1.87.516 1.87 1.627 0 1.11-.677 1.686-2.01 1.686ZM69.941 5.812c-1.532 0-2.706.714-3.462 1.765V6.05h-2.845v15.868h2.845v-6.427c.776 1.032 1.91 1.706 3.462 1.706 2.845 0 4.994-2.34 4.994-5.692 0-3.373-2.189-5.693-4.994-5.693Zm-.657 8.688c-1.591 0-2.805-1.19-2.805-2.995 0-1.786 1.214-2.996 2.805-2.996 1.592 0 2.766 1.21 2.766 2.995 0 1.806-1.194 2.996-2.766 2.996ZM82.353 5.812c-3.143 0-5.69 2.4-5.69 5.692 0 3.273 2.507 5.693 5.69 5.693 3.204 0 5.71-2.4 5.71-5.692 0-3.293-2.546-5.693-5.71-5.693Zm0 2.697c1.592 0 2.826 1.21 2.826 2.995 0 1.806-1.234 2.996-2.826 2.996-1.591 0-2.825-1.19-2.825-2.995 0-1.786 1.234-2.996 2.825-2.996ZM97.816 6.05v4.026H92.9V6.05h-2.845v10.91h2.845v-4.206h4.915v4.205h2.845V6.05h-2.845ZM110.141 6.05l-4.497 7.061.139-3.193V6.05h-2.845v10.91h3.283l4.517-7.102-.18 3.233v3.868h2.846V6.05h-3.263ZM122.091 5.812c-1.532 0-2.706.714-3.462 1.765V6.05h-2.845v15.868h2.845v-6.427c.776 1.032 1.91 1.706 3.462 1.706 2.845 0 4.994-2.34 4.994-5.692 0-3.373-2.189-5.693-4.994-5.693Zm-.657 8.688c-1.591 0-2.805-1.19-2.805-2.995 0-1.786 1.214-2.996 2.805-2.996 1.592 0 2.766 1.21 2.766 2.995 0 1.806-1.194 2.996-2.766 2.996ZM135.937 6.05l-2.726 6.387-2.705-6.387h-3.025l4.218 9.461-2.865 6.407h3.024l7.123-15.868h-3.044ZM145.768 4.681c1.731 0 3.322-1.15 3.322-3.154V.992h-2.228v.456c0 .674-.438 1.09-1.094 1.09-.657 0-1.095-.416-1.095-1.09V.992h-2.248v.535c0 2.004 1.592 3.154 3.343 3.154Zm1.97 1.369-4.497 7.061.139-3.193V6.05h-2.845v10.91h3.283l4.516-7.102-.179 3.233v3.868H151V6.05h-3.262ZM55.929 29.614c-3.144 0-5.69 2.4-5.69 5.693 0 3.273 2.506 5.693 5.69 5.693 3.203 0 5.71-2.4 5.71-5.693 0-3.293-2.547-5.693-5.71-5.693Zm0 2.698c1.591 0 2.825 1.21 2.825 2.995 0 1.805-1.234 2.995-2.825 2.995-1.592 0-2.826-1.19-2.826-2.995 0-1.785 1.234-2.995 2.826-2.995ZM71.391 29.852v4.027h-4.914v-4.027H63.63v10.91h2.846v-4.205h4.914v4.205h2.845v-10.91h-2.845ZM79.26 29.852l-1.035 6.367c-.279 1.687-.697 2.143-1.672 2.143-.238 0-.477-.02-.736-.06v2.559c.418.08.896.139 1.333.139 1.99 0 3.363-1.27 3.88-4.503l.657-3.967h2.825v8.232h2.845v-10.91h-8.098ZM97.806 29.852v1.528c-.756-1.052-1.91-1.766-3.462-1.766-2.805 0-4.974 2.321-4.974 5.693C89.37 38.66 91.5 41 94.364 41c1.532 0 2.666-.675 3.422-1.706v1.468h2.845l.02-10.91h-2.845Zm-2.805 8.45c-1.572 0-2.766-1.19-2.766-2.995 0-1.785 1.174-2.995 2.766-2.995 1.591 0 2.805 1.21 2.805 2.995 0 1.805-1.214 2.995-2.805 2.995ZM108.151 28.484c1.731 0 3.323-1.15 3.323-3.154v-.536h-2.228v.456c0 .675-.438 1.091-1.095 1.091-.656 0-1.094-.416-1.094-1.09v-.457h-2.248v.536c0 2.003 1.592 3.154 3.342 3.154Zm1.97 1.368-4.496 7.062.139-3.194v-3.868h-2.845v10.91h3.283l4.516-7.101-.179 3.233v3.868h2.845v-10.91h-3.263ZM123.424 29.852v4.027h-4.914v-4.027h-2.845v10.91h2.845v-4.205h4.914v4.205h2.845v-10.91h-2.845Z"/></svg>