<svg xmlns="http://www.w3.org/2000/svg" width="105" height="29" fill="none" viewBox="0 0 105 29"><path fill="#FC6733" fill-opacity=".4" d="M13.492 0v6.724l7.264 6.724 7.263-6.724V0l-7.263 6.724L13.492 0Z" opacity=".4"/><path fill="#FC6733" fill-opacity=".6" d="M0 13.448h6.745l6.744-6.724L6.745 0H0l6.745 6.724L0 13.448Z" opacity=".6"/><path fill="#FC6733" d="M28.02 13.448h-7.264l-7.264 7.241 7.264 7.242h7.263l-7.263-7.242 7.263-7.24Z"/><path fill="#FC6733" fill-opacity=".8" d="M13.49 27.931V20.69l-6.745-7.242L0 20.69v7.241l6.745-7.241 6.744 7.241Z" opacity=".8"/><path fill="#000" d="M39.638 5.807h-2.283V4.014h4.787V2.138h-6.766v9.655h4.165c2.075 0 3.32-1.076 3.32-3.02 0-1.959-1.107-2.966-3.223-2.966Zm-.166 4.11h-2.117V7.614h2.213c.927 0 1.3.359 1.3 1.131s-.47 1.172-1.397 1.172ZM48.634 4.042a2.88 2.88 0 0 0-2.407 1.227V4.207h-1.979v11.034h1.979v-4.468c.54.717 1.328 1.186 2.407 1.186 1.979 0 3.473-1.628 3.473-3.959 0-2.345-1.522-3.958-3.473-3.958Zm-.456 6.04c-1.107 0-1.951-.827-1.951-2.082 0-1.241.844-2.083 1.95-2.083 1.107 0 1.924.842 1.924 2.083 0 1.255-.83 2.083-1.923 2.083ZM57.265 4.042c-2.186 0-3.957 1.669-3.957 3.958 0 2.276 1.744 3.959 3.957 3.959 2.228 0 3.971-1.67 3.971-3.959 0-2.29-1.77-3.958-3.97-3.958Zm0 1.875c1.107 0 1.965.842 1.965 2.083 0 1.255-.858 2.083-1.965 2.083-1.107 0-1.964-.828-1.964-2.083 0-1.241.857-2.083 1.964-2.083ZM68.017 4.207v2.8H64.6v-2.8h-1.978v7.586H64.6V8.87h3.417v2.924h1.979V4.207h-1.979ZM76.588 4.207l-3.127 4.91.097-2.22v-2.69h-1.979v7.586h2.283l3.14-4.938-.124 2.249v2.69h1.979V4.206h-2.27ZM84.897 4.042a2.88 2.88 0 0 0-2.407 1.227V4.207h-1.978v11.034h1.978v-4.468c.54.717 1.328 1.186 2.407 1.186 1.979 0 3.473-1.628 3.473-3.959 0-2.345-1.522-3.958-3.473-3.958Zm-.456 6.04c-1.107 0-1.95-.827-1.95-2.082 0-1.241.843-2.083 1.95-2.083S86.364 6.76 86.364 8c0 1.255-.83 2.083-1.923 2.083ZM94.526 4.207 92.63 8.648l-1.881-4.44h-2.103l2.933 6.578-1.992 4.456h2.102l4.954-11.035h-2.117ZM101.362 3.255c1.203 0 2.31-.8 2.31-2.193V.69h-1.549v.317c0 .47-.305.759-.761.759-.457 0-.761-.29-.761-.759V.69h-1.564v.372c0 1.393 1.107 2.193 2.325 2.193Zm1.369.952-3.126 4.91.096-2.22v-2.69h-1.978v7.586h2.283l3.14-4.938-.124 2.249v2.69H105V4.206h-2.269ZM38.89 20.593c-2.185 0-3.956 1.67-3.956 3.959 0 2.276 1.743 3.958 3.956 3.958 2.228 0 3.971-1.669 3.971-3.958 0-2.29-1.77-3.959-3.97-3.959Zm0 1.876c1.107 0 1.965.841 1.965 2.083 0 1.255-.858 2.082-1.965 2.082-1.106 0-1.964-.827-1.964-2.082 0-1.242.858-2.083 1.964-2.083ZM49.642 20.759v2.8h-3.417v-2.8h-1.978v7.586h1.978V25.42h3.417v2.924h1.979v-7.586h-1.979ZM55.114 20.759l-.72 4.427c-.193 1.173-.484 1.49-1.162 1.49-.166 0-.332-.014-.512-.042v1.78c.29.055.623.096.927.096 1.384 0 2.338-.883 2.698-3.13l.457-2.76h1.964v5.725h1.979v-7.586h-5.631ZM68.01 20.759v1.062c-.525-.731-1.328-1.228-2.407-1.228-1.95 0-3.458 1.614-3.458 3.959 0 2.33 1.48 3.958 3.472 3.958 1.066 0 1.854-.469 2.38-1.186v1.02h1.978l.014-7.585h-1.978Zm-1.95 5.875c-1.093 0-1.923-.827-1.923-2.082 0-1.242.816-2.083 1.923-2.083 1.107 0 1.95.841 1.95 2.083 0 1.255-.843 2.082-1.95 2.082ZM75.204 19.807c1.204 0 2.311-.8 2.311-2.193v-.373h-1.55v.318c0 .469-.304.758-.76.758-.457 0-.761-.29-.761-.758v-.318H72.88v.373c0 1.393 1.107 2.193 2.325 2.193Zm1.37.952-3.127 4.91.097-2.22v-2.69h-1.978v7.586h2.283l3.14-4.938-.124 2.248v2.69h1.978v-7.586h-2.269ZM85.825 20.759v2.8h-3.418v-2.8H80.43v7.586h1.978V25.42h3.418v2.924h1.978v-7.586h-1.978Z"/></svg>